<?xml version="1.0" encoding="UTF-8" standalone="no"?>
<!-- Created with Inkscape (http://www.inkscape.org/) -->

<svg
   xmlns:dc="http://purl.org/dc/elements/1.1/"
   xmlns:cc="http://creativecommons.org/ns#"
   xmlns:rdf="http://www.w3.org/1999/02/22-rdf-syntax-ns#"
   xmlns:svg="http://www.w3.org/2000/svg"
   xmlns="http://www.w3.org/2000/svg"
   xmlns:sodipodi="http://sodipodi.sourceforge.net/DTD/sodipodi-0.dtd"
   xmlns:inkscape="http://www.inkscape.org/namespaces/inkscape"
   width="49.606297"
   height="141.73228"
   id="svg2"
   version="1.1"
   inkscape:version="0.48.5 r10040"
   sodipodi:docname="CP2102.svg">
  <defs
     id="defs4" />
  <sodipodi:namedview
     id="base"
     pagecolor="#ffffff"
     bordercolor="#666666"
     borderopacity="1.0"
     inkscape:pageopacity="0.0"
     inkscape:pageshadow="2"
     inkscape:zoom="2.18"
     inkscape:cx="172.90552"
     inkscape:cy="150.76323"
     inkscape:document-units="px"
     inkscape:current-layer="layer1"
     showgrid="false"
     inkscape:window-width="1185"
     inkscape:window-height="950"
     inkscape:window-x="418"
     inkscape:window-y="19"
     inkscape:window-maximized="0"
     units="mm" />
  <metadata
     id="metadata7">
    <rdf:RDF>
      <cc:Work
         rdf:about="">
        <dc:format>image/svg+xml</dc:format>
        <dc:type
           rdf:resource="http://purl.org/dc/dcmitype/StillImage" />
        <dc:title />
      </cc:Work>
    </rdf:RDF>
  </metadata>
  <g
     inkscape:label="Ebene 1"
     inkscape:groupmode="layer"
     id="layer1"
     transform="translate(0,-910.6299)">
    <g
       id="g2989"
       transform="matrix(0.00170919,0,0,4.8177104e-4,-0.07059079,910.25924)">
      <path
         id="path2991"
         d="m 28255.351,103359.82 -28164.273835,0 0,166464.63 28164.273835,0 0,-166464.63 z"
         style="fill:#ff4534;fill-opacity:1;fill-rule:evenodd;stroke:none"
         inkscape:connector-curvature="0" />
      <path
         id="path2993"
         d="m 91.077165,103359.82 0,166464.63 28164.273835,0 0,-166464.63 -28164.273835,0"
         style="fill:none;stroke:#000000;stroke-width:187.5118103px;stroke-linecap:round;stroke-linejoin:round;stroke-opacity:1;stroke-dasharray:none"
         inkscape:connector-curvature="0" />
      <path
         id="path2995"
         d="m 22774.649,128352.85 -2266.214,0 0,17076.84 2266.214,0 0,-17076.84 z"
         style="fill:#cccccc;fill-opacity:1;fill-rule:evenodd;stroke:none"
         inkscape:connector-curvature="0" />
      <path
         id="path2997"
         d="m 13324.053,128352.85 -2266.214,0 0,17076.84 2266.214,0 0,-17076.84 z"
         style="fill:#cccccc;fill-opacity:1;fill-rule:evenodd;stroke:none"
         inkscape:connector-curvature="0" />
      <path
         id="path2999"
         d="m 19656.595,159447.22 -10489.9462,0 0,33842.56 10489.9462,0 0,-33842.56 z"
         style="fill:#232325;fill-opacity:1;fill-rule:evenodd;stroke:none"
         inkscape:connector-curvature="0" />
      <path
         id="path3001"
         d="m 17481.458,128352.85 -2266.214,0 0,17076.84 2266.214,0 0,-17076.84 z"
         style="fill:#cccccc;fill-opacity:1;fill-rule:evenodd;stroke:none"
         inkscape:connector-curvature="0" />
      <path
         id="path3003"
         d="m 7655.8393,128352.85 -2271.5716,0 0,17076.84 2271.5716,0 0,-17076.84 z"
         style="fill:#cccccc;fill-opacity:1;fill-rule:evenodd;stroke:none"
         inkscape:connector-curvature="0" />
      <path
         id="path3005"
         d="m 4628.863,161884.3 -2266.2142,0 0,4891.44 2266.2142,0 0,-4891.44 z"
         style="fill:#cccccc;fill-opacity:1;fill-rule:evenodd;stroke:none"
         inkscape:connector-curvature="0" />
      <path
         id="path3007"
         d="m 1039.3512,196642.93 3589.5118,0 0,-9748.32 -3589.5118,0 0,9748.32 z"
         style="fill:#cccccc;fill-opacity:1;fill-rule:evenodd;stroke:none"
         inkscape:connector-curvature="0" />
      <path
         id="path3009"
         d="m 4628.863,174691.93 -2266.2142,0 0,4874.16 2266.2142,0 0,-4874.16 z"
         style="fill:#cccccc;fill-opacity:1;fill-rule:evenodd;stroke:none"
         inkscape:connector-curvature="0" />
      <path
         id="path3011"
         d="m 4628.863,218593.92 0,-9748.31 -3589.5118,0 0,9748.31 3589.5118,0 z"
         style="fill:#cccccc;fill-opacity:1;fill-rule:evenodd;stroke:none"
         inkscape:connector-curvature="0" />
      <path
         id="path3013"
         d="m 6139.6724,205181.35 0,4874.15 2271.5717,0 0,-4874.15 -2271.5717,0 z"
         style="fill:#cccccc;fill-opacity:1;fill-rule:evenodd;stroke:none"
         inkscape:connector-curvature="0" />
      <path
         id="path3015"
         d="m 3278.7779,231868.23 -594.6803,0 0,1279.03 594.6803,0 0,1953.12 412.526,0 0,-1953.12 600.0378,0 0,-1279.03 -600.0378,0 0,-1953.12 -412.526,0 0,1953.12 z"
         style="fill:#ffffff;fill-opacity:1;fill-rule:evenodd;stroke:none"
         inkscape:connector-curvature="0" />
      <path
         id="path3017"
         d="m 7570.1197,229569.42 c -107.1496,587.67 -155.367,1279.04 -155.367,2039.55 0,622.23 42.8599,1227.18 107.1496,1814.84 75.0048,570.38 160.7244,1019.77 257.1591,1365.46 l 905.4142,0 0,-3232.16 -385.7386,0 0,1711.14 -283.9465,0 c -58.9323,-224.69 -107.1496,-501.24 -144.6519,-795.07 -37.5024,-345.69 -53.5749,-639.52 -53.5749,-950.64 0,-639.51 64.2898,-1158.04 198.2268,-1555.58 139.2945,-397.54 348.2362,-570.38 621.4677,-570.38 257.1591,0 444.6709,172.84 567.8929,570.38 133.9371,397.54 198.2268,916.07 198.2268,1555.58 0,432.11 -37.5023,795.08 -101.7921,1106.2 -69.6473,276.54 -155.3669,483.96 -267.874,570.38 l 85.7197,1503.73 c 219.6567,-155.56 380.3811,-501.25 492.8881,-1019.77 123.2221,-518.53 187.5119,-1244.47 187.5119,-2160.54 0,-691.37 -37.5024,-1313.6 -123.2221,-1762.99 -96.4346,-639.52 -235.7291,-1106.19 -423.2409,-1434.59 -182.1544,-328.4 -396.4536,-483.96 -632.1827,-483.96 -230.3717,0 -439.3134,155.56 -616.1102,449.39 -187.5119,276.55 -332.1638,708.65 -433.9559,1279.03 z"
         style="fill:#ffffff;fill-opacity:1;fill-rule:evenodd;stroke:none"
         inkscape:connector-curvature="0" />
      <path
         id="path3019"
         d="m 6139.6724,217988.98 0,4874.15 2271.5717,0 0,-4874.15 -2271.5717,0 z"
         style="fill:#cccccc;fill-opacity:1;fill-rule:evenodd;stroke:none"
         inkscape:connector-curvature="0" />
      <path
         id="path3021"
         d="m 15783.137,205181.35 -2271.572,0 0,4874.15 2271.572,0 0,-4874.15 z"
         style="fill:#cccccc;fill-opacity:1;fill-rule:evenodd;stroke:none"
         inkscape:connector-curvature="0" />
      <path
         id="path3023"
         d="m 15783.137,217988.98 -2271.572,0 0,4874.15 2271.572,0 0,-4874.15 z"
         style="fill:#cccccc;fill-opacity:1;fill-rule:evenodd;stroke:none"
         inkscape:connector-curvature="0" />
      <path
         id="path3025"
         d="m 12188.268,217988.98 -2266.2145,0 0,4874.15 2266.2145,0 0,-4874.15 z"
         style="fill:#cccccc;fill-opacity:1;fill-rule:evenodd;stroke:none"
         inkscape:connector-curvature="0" />
      <path
         id="path3027"
         d="m 9922.0535,210055.5 2266.2145,0 0,-4874.15 -2266.2145,0 0,4874.15 z"
         style="fill:#cccccc;fill-opacity:1;fill-rule:evenodd;stroke:none"
         inkscape:connector-curvature="0" />
      <path
         id="path3029"
         d="m 13966.951,231678.1 c -48.217,120.99 -160.724,362.97 -342.879,760.51 l -498.245,1106.19 0,1797.56 444.671,-916.06 c 176.796,-362.97 310.733,-639.52 375.023,-864.21 69.647,-207.41 133.937,-449.39 192.869,-795.08 26.788,656.8 101.793,1140.76 214.3,1469.16 112.507,345.69 257.159,483.96 428.598,483.96 139.295,0 251.802,-120.99 358.951,-328.4 101.792,-207.41 176.797,-483.96 225.014,-846.93 37.503,-380.25 58.933,-950.63 58.933,-1745.71 l 0,-3145.73 -2298.359,0 0,1503.73 964.346,0 0,293.83 c 0,345.69 -10.715,622.23 -26.787,777.79 -21.43,138.28 -48.218,293.83 -96.435,449.39 z m 1066.139,-1521.01 0,1158.04 c 0,604.95 0,967.92 -10.715,1088.91 -5.358,241.98 -37.503,432.11 -80.362,587.67 -48.218,120.99 -117.865,172.84 -192.87,172.84 -64.29,0 -123.222,-51.85 -166.082,-138.28 -48.217,-103.7 -85.719,-259.26 -107.149,-397.53 -16.073,-190.13 -26.788,-639.52 -26.788,-1382.74 l 0,-1088.91 583.966,0 z"
         style="fill:#ffffff;fill-opacity:1;fill-rule:evenodd;stroke:none"
         inkscape:connector-curvature="0" />
      <path
         id="path3031"
         d="m 22587.137,205181.35 -2271.572,0 0,4874.15 2271.572,0 0,-4874.15 z"
         style="fill:#cccccc;fill-opacity:1;fill-rule:evenodd;stroke:none"
         inkscape:connector-curvature="0" />
      <path
         id="path3033"
         d="m 22587.137,217988.98 -2271.572,0 0,4874.15 2271.572,0 0,-4874.15 z"
         style="fill:#cccccc;fill-opacity:1;fill-rule:evenodd;stroke:none"
         inkscape:connector-curvature="0" />
      <path
         id="path3035"
         d="m 19372.649,210055.5 0,-4874.15 -2266.214,0 0,4874.15 2266.214,0 z"
         style="fill:#cccccc;fill-opacity:1;fill-rule:evenodd;stroke:none"
         inkscape:connector-curvature="0" />
      <path
         id="path3037"
         d="m 19372.649,217988.98 -2266.214,0 0,4874.15 2266.214,0 0,-4874.15 z"
         style="fill:#cccccc;fill-opacity:1;fill-rule:evenodd;stroke:none"
         inkscape:connector-curvature="0" />
      <path
         id="path3039"
         d="m 18794.041,230917.6 0,1486.44 1912.62,0 0,2195.1 385.739,0 0,-5911.21 -385.739,0 0,2229.67 -1912.62,0 z"
         style="fill:#ffffff;fill-opacity:1;fill-rule:evenodd;stroke:none"
         inkscape:connector-curvature="0" />
      <path
         id="path3041"
         d="m 23717.565,196642.93 3594.87,0 0,-9748.32 -3594.87,0 0,9748.32 z"
         style="fill:#cccccc;fill-opacity:1;fill-rule:evenodd;stroke:none"
         inkscape:connector-curvature="0" />
      <path
         id="path3043"
         d="m 27312.435,218593.92 0,-9748.31 -3594.87,0 0,9748.31 3594.87,0 z"
         style="fill:#cccccc;fill-opacity:1;fill-rule:evenodd;stroke:none"
         inkscape:connector-curvature="0" />
      <path
         id="path3045"
         d="m 25608.756,228687.93 -75.005,1313.6 c 101.792,34.57 182.154,155.56 235.729,328.4 48.218,155.56 75.005,380.25 75.005,622.23 0,241.98 -16.073,414.83 -64.29,570.38 -48.217,155.56 -112.507,241.98 -187.512,241.98 -85.719,0 -160.724,-86.42 -219.656,-293.83 -53.575,-224.69 -85.72,-501.24 -75.005,-898.78 l -358.951,-138.27 c 16.072,241.98 26.787,449.39 26.787,639.51 0,276.55 -26.787,518.53 -91.077,691.37 -69.647,224.7 -155.367,311.12 -267.874,311.12 -123.222,0 -214.299,-86.42 -283.946,-311.12 -64.29,-207.41 -91.078,-449.39 -91.078,-760.5 0,-276.55 26.788,-483.96 85.72,-674.09 53.575,-207.41 139.295,-328.4 241.087,-362.97 l -42.86,-1365.45 c -198.227,51.85 -353.594,293.83 -476.816,760.5 -123.222,449.39 -176.797,1002.49 -176.797,1676.58 0,708.65 64.29,1313.6 208.942,1762.99 139.294,466.67 321.449,708.65 519.676,708.65 139.294,0 251.801,-120.99 358.951,-362.97 91.077,-276.54 160.724,-622.23 187.512,-1037.05 123.222,725.94 283.946,1088.91 482.173,1088.91 139.294,0 273.231,-172.85 380.381,-553.1 139.294,-397.54 203.584,-967.92 203.584,-1676.57 0,-397.54 -16.072,-760.51 -64.29,-1088.91 -48.217,-328.4 -112.507,-587.66 -198.226,-760.51 -85.72,-190.12 -187.512,-345.68 -332.164,-432.1 z"
         style="fill:#ffffff;fill-opacity:1;fill-rule:evenodd;stroke:none"
         inkscape:connector-curvature="0" />
      <path
         id="path3047"
         d="m 25999.852,241288.15 c 139.294,-397.54 203.584,-985.21 203.584,-1676.58 0,-397.53 -16.072,-777.79 -64.29,-1106.19 -48.217,-328.4 -112.507,-570.38 -198.226,-760.5 -85.72,-190.13 -187.512,-328.41 -332.164,-432.11 l -75.005,1313.6 c 101.792,34.57 182.154,155.56 235.729,345.69 48.218,138.27 75.005,362.97 75.005,604.95 0,241.98 -16.073,432.1 -64.29,570.38 -48.217,155.55 -112.507,241.98 -187.512,241.98 -85.719,0 -160.724,-86.43 -219.656,-293.84 -53.575,-224.69 -85.72,-483.96 -75.005,-881.49 l -358.951,-155.56 c 16.072,241.98 26.787,449.39 26.787,639.52 0,276.54 -26.787,518.52 -91.077,691.37 -69.647,224.69 -155.367,311.11 -267.874,311.11 -123.222,0 -214.299,-86.42 -283.946,-311.11 -64.29,-207.42 -91.078,-449.4 -91.078,-760.51 0,-276.55 26.788,-483.96 85.72,-656.8 53.575,-224.7 139.295,-345.69 241.087,-380.26 l -42.86,-1365.45 c -198.227,69.13 -353.594,311.11 -476.816,760.5 -123.222,466.68 -176.797,1002.49 -176.797,1676.58 0,708.65 64.29,1313.6 208.942,1762.99 139.294,466.68 321.449,708.65 519.676,708.65 139.294,0 251.801,-120.98 358.951,-362.96 91.077,-276.55 160.724,-604.95 187.512,-1037.06 123.222,725.94 283.946,1088.91 482.173,1088.91 139.294,0 273.231,-172.84 380.381,-535.81 z"
         style="fill:#ffffff;fill-opacity:1;fill-rule:evenodd;stroke:none"
         inkscape:connector-curvature="0" />
      <path
         id="path3049"
         d="m 23899.72,234702.85 0,1434.59 444.67,0 0,-1434.59 -444.67,0 z"
         style="fill:#ffffff;fill-opacity:1;fill-rule:evenodd;stroke:none"
         inkscape:connector-curvature="0" />
      <path
         id="path3051"
         d="m 23899.72,245246.24 0,1590.15 2298.359,2644.49 0,-1590.15 -1703.679,-1797.56 1703.679,-1883.98 0,-1624.72 -2298.359,2661.77 z"
         style="fill:#ffffff;fill-opacity:1;fill-rule:evenodd;stroke:none"
         inkscape:connector-curvature="0" />
      <path
         id="path3053"
         d="m 24306.888,258451.41 1055.424,0 0,8538.42 1580.456,0 0,-13637.28 -4227.052,0 0,13637.28 1591.172,0 0,-8538.42 z"
         style="fill:#cccccc;fill-opacity:1;fill-rule:evenodd;stroke:none"
         inkscape:connector-curvature="0" />
      <path
         id="path3055"
         d="m 25362.312,258451.41 -1055.424,0 0,8538.42 0,27793.07 1055.424,0 0,-27793.07 0,-8538.42 z"
         style="fill:#cccccc;fill-opacity:1;fill-rule:evenodd;stroke:none"
         inkscape:connector-curvature="0" />
      <path
         id="path3057"
         d="m 21092.4,239749.85 -739.332,-1451.88 739.332,-1503.73 0,-1728.42 -1098.284,2281.52 -1200.075,-2523.5 0,1797.56 798.264,1642 -798.264,1642.01 0,1797.56 1184.003,-2523.5 1114.356,2316.09 0,-1745.71 z"
         style="fill:#ffffff;fill-opacity:1;fill-rule:evenodd;stroke:none"
         inkscape:connector-curvature="0" />
      <path
         id="path3059"
         d="m 19919.112,248720.37 c 219.656,0 407.168,-86.42 551.82,-241.97 139.295,-155.56 262.517,-397.54 364.309,-725.94 107.149,-311.12 171.439,-674.09 219.657,-1106.2 26.787,-328.4 37.502,-795.07 37.502,-1434.59 l 0,-2713.63 -2298.359,0 0,2800.05 c 0,553.1 21.43,1019.77 48.217,1348.17 48.218,432.11 107.15,760.51 187.512,1037.06 107.15,328.4 241.087,604.95 407.169,795.08 133.937,155.55 294.661,241.97 482.173,241.97 z m 787.549,-4718.6 0,656.81 c 0,622.23 -10.715,1019.77 -21.43,1227.18 -16.072,276.55 -53.574,518.52 -112.507,708.65 -48.217,172.84 -123.222,328.4 -219.656,414.82 -91.078,103.71 -225.015,155.56 -401.811,155.56 -182.155,0 -321.449,-51.85 -428.599,-155.56 -101.792,-86.42 -176.797,-241.98 -225.014,-397.53 -48.217,-155.56 -75.005,-362.97 -96.435,-604.95 -10.715,-190.13 -16.072,-483.96 -16.072,-916.07 l 0,-1088.91 1521.524,0 z"
         style="fill:#ffffff;fill-opacity:1;fill-rule:evenodd;stroke:none"
         inkscape:connector-curvature="0" />
      <path
         id="path3061"
         d="m 18976.195,258451.41 1055.424,0 0,8538.42 1580.457,0 0,-13637.28 -4227.052,0 0,13637.28 1591.171,0 0,-8538.42 z"
         style="fill:#cccccc;fill-opacity:1;fill-rule:evenodd;stroke:none"
         inkscape:connector-curvature="0" />
      <path
         id="path3063"
         d="m 20031.619,258451.41 -1055.424,0 0,8538.42 0,27793.07 1055.424,0 0,-27793.07 0,-8538.42 z"
         style="fill:#cccccc;fill-opacity:1;fill-rule:evenodd;stroke:none"
         inkscape:connector-curvature="0" />
      <path
         id="path3065"
         d="m 15424.186,235636.2 -1098.284,2298.8 -1200.075,-2540.78 0,1797.56 792.907,1642 -792.907,1659.29 0,1797.56 1178.645,-2540.78 1119.714,2316.09 0,-1728.43 -739.333,-1469.16 739.333,-1486.44 0,-1745.71 z"
         style="fill:#ffffff;fill-opacity:1;fill-rule:evenodd;stroke:none"
         inkscape:connector-curvature="0" />
      <path
         id="path3067"
         d="m 13125.827,243085.71 0,2800.05 c 0,553.09 16.072,1002.48 48.217,1348.17 48.217,414.82 101.792,760.51 187.512,1037.05 101.792,328.4 235.729,604.95 407.168,777.8 133.937,155.55 294.662,259.26 482.174,259.26 214.299,0 407.168,-103.71 546.463,-259.26 144.652,-138.28 267.874,-397.54 369.666,-725.94 101.792,-311.12 171.439,-674.09 219.656,-1088.91 26.788,-345.69 37.503,-795.08 37.503,-1434.59 l 0,-2713.63 -2298.359,0 z m 385.738,2592.64 0,-1106.2 1521.525,0 0,674.09 c 0,604.95 -10.715,1002.49 -16.073,1209.9 -21.43,276.55 -58.932,518.53 -112.507,708.65 -48.217,190.13 -123.222,328.4 -219.657,432.11 -96.434,86.42 -225.014,155.56 -407.168,155.56 -176.797,0 -321.449,-69.14 -423.241,-155.56 -107.15,-103.71 -182.154,-241.98 -230.372,-397.54 -42.859,-155.56 -75.004,-362.97 -91.077,-604.95 -10.715,-190.13 -21.43,-501.24 -21.43,-916.06 z"
         style="fill:#ffffff;fill-opacity:1;fill-rule:evenodd;stroke:none"
         inkscape:connector-curvature="0" />
      <path
         id="path3069"
         d="m 9750.6141,237623.89 0,-1469.17 -2293.0015,0 0,1400.03 1500.0945,0 -1500.0945,2990.17 0,1503.73 2293.0015,0 0,-1382.74 -1532.2393,0 1532.2393,-3042.02 z"
         style="fill:#ffffff;fill-opacity:1;fill-rule:evenodd;stroke:none"
         inkscape:connector-curvature="0" />
      <path
         id="path3071"
         d="m 9750.6141,246369.72 0,-2713.63 -2293.0015,0 0,2800.05 c 0,553.09 16.0724,1019.77 42.8598,1348.17 48.2173,432.11 107.1496,760.51 192.8693,1037.05 101.7921,328.41 235.7291,604.95 401.811,795.08 133.937,155.56 294.6614,241.98 482.1733,241.98 219.6566,0 407.1685,-86.42 551.8204,-241.98 139.2945,-155.56 262.5166,-397.54 369.6662,-725.94 101.7921,-311.12 166.0819,-674.08 214.2992,-1106.19 26.7874,-328.4 37.5023,-795.08 37.5023,-1434.59 z m -385.7385,-1209.9 0,656.8 c 0,622.23 -10.715,1019.77 -21.43,1227.18 -16.0724,276.55 -53.5748,518.53 -112.5071,708.66 -48.2173,172.84 -123.222,328.4 -214.2992,414.82 -96.4346,103.7 -230.3716,155.56 -407.1685,155.56 -182.1543,0 -321.4488,-51.86 -428.5984,-155.56 -101.7921,-86.42 -176.7968,-241.98 -225.0142,-397.54 -48.2173,-138.27 -75.0047,-362.97 -96.4346,-604.95 -5.3575,-190.12 -16.0724,-483.96 -16.0724,-916.06 l 0,-1088.91 1521.5244,0 z"
         style="fill:#ffffff;fill-opacity:1;fill-rule:evenodd;stroke:none"
         inkscape:connector-curvature="0" />
      <path
         id="path3073"
         d="m 13656.217,258451.41 1055.424,0 0,8538.42 1591.172,0 0,-13637.28 -4237.767,0 0,13637.28 1591.171,0 0,-8538.42 z"
         style="fill:#cccccc;fill-opacity:1;fill-rule:evenodd;stroke:none"
         inkscape:connector-curvature="0" />
      <path
         id="path3075"
         d="m 14711.641,258451.41 -1055.424,0 0,8538.42 0,27793.07 1055.424,0 0,-27793.07 0,-8538.42 z"
         style="fill:#cccccc;fill-opacity:1;fill-rule:evenodd;stroke:none"
         inkscape:connector-curvature="0" />
      <path
         id="path3077"
         d="m 9380.948,266989.83 1591.172,0 0,-13637.28 -4227.0523,0 0,13637.28 1580.4567,0 0,-8538.42 1055.4236,0 0,8538.42 z"
         style="fill:#cccccc;fill-opacity:1;fill-rule:evenodd;stroke:none"
         inkscape:connector-curvature="0" />
      <path
         id="path3079"
         d="m 9380.948,266989.83 0,-8538.42 -1055.4236,0 0,8538.42 0,27793.07 1055.4236,0 0,-27793.07 z"
         style="fill:#cccccc;fill-opacity:1;fill-rule:evenodd;stroke:none"
         inkscape:connector-curvature="0" />
      <path
         id="path3081"
         d="m 4618.148,240665.91 0,-3750.68 -1200.0756,-725.94 -48.2173,1158.05 c 117.8646,328.4 171.4394,708.65 171.4394,1106.19 0,328.4 -37.5024,570.38 -112.5071,777.79 -64.2898,224.7 -171.4394,311.12 -310.7339,311.12 -150.0094,0 -267.874,-86.42 -342.8787,-311.12 -75.0047,-207.41 -112.5071,-449.39 -112.5071,-760.51 0,-276.54 26.7874,-483.96 85.7197,-691.37 64.2898,-190.12 144.652,-311.11 235.7291,-345.68 l -37.5023,-1434.59 c -198.2268,103.7 -348.2363,345.68 -460.7433,795.07 -117.8646,432.11 -171.4394,985.2 -171.4394,1659.29 0,881.5 101.7921,1555.58 300.0189,2004.97 155.3669,362.97 321.4488,553.1 514.3181,553.1 225.0142,0 401.811,-224.7 546.463,-674.09 139.2945,-432.1 214.2992,-950.63 214.2992,-1590.15 0,-328.4 -26.7874,-674.08 -75.0047,-967.92 l 391.096,207.41 0,2679.06 412.526,0 z"
         style="fill:#ffffff;fill-opacity:1;fill-rule:evenodd;stroke:none"
         inkscape:connector-curvature="0" />
      <path
         id="path3083"
         d="m 4650.2929,248201.85 0,-1590.15 -1703.6787,-1797.57 1703.6787,-1883.98 0,-1624.72 -2298.3591,2661.78 0,1590.15 2298.3591,2644.49 z"
         style="fill:#ffffff;fill-opacity:1;fill-rule:evenodd;stroke:none"
         inkscape:connector-curvature="0" />
      <path
         id="path3085"
         d="m 3005.5464,258451.41 1055.4237,0 0,8538.42 1580.4566,0 0,-13637.28 -4227.0519,0 0,13637.28 1591.1716,0 0,-8538.42 z"
         style="fill:#cccccc;fill-opacity:1;fill-rule:evenodd;stroke:none"
         inkscape:connector-curvature="0" />
      <path
         id="path3087"
         d="m 4060.9701,258451.41 -1055.4237,0 0,8538.42 0,27793.07 1055.4237,0 0,-27793.07 0,-8538.42 z"
         style="fill:#cccccc;fill-opacity:1;fill-rule:evenodd;stroke:none"
         inkscape:connector-curvature="0" />
      <path
         id="path3089"
         d="m 20508.435,128352.85 0,17076.84 2266.214,0 0,-17076.84 -2266.214,0"
         style="fill:none;stroke:#000000;stroke-width:187.5118103px;stroke-linecap:round;stroke-linejoin:round;stroke-opacity:1;stroke-dasharray:none"
         inkscape:connector-curvature="0" />
      <path
         id="path3091"
         d="m 11057.839,128352.85 0,17076.84 2266.214,0 0,-17076.84 -2266.214,0"
         style="fill:none;stroke:#000000;stroke-width:187.5118103px;stroke-linecap:round;stroke-linejoin:round;stroke-opacity:1;stroke-dasharray:none"
         inkscape:connector-curvature="0" />
      <path
         id="path3093"
         d="m 9166.6488,159447.22 0,33842.56 10489.9462,0 0,-33842.56 -10489.9462,0"
         style="fill:none;stroke:#000000;stroke-width:187.5118103px;stroke-linecap:round;stroke-linejoin:round;stroke-opacity:1;stroke-dasharray:none"
         inkscape:connector-curvature="0" />
      <path
         id="path3095"
         d="m 15215.244,128352.85 0,17076.84 2266.214,0 0,-17076.84 -2266.214,0"
         style="fill:none;stroke:#000000;stroke-width:187.5118103px;stroke-linecap:round;stroke-linejoin:round;stroke-opacity:1;stroke-dasharray:none"
         inkscape:connector-curvature="0" />
      <path
         id="path3097"
         d="m 5384.2677,128352.85 0,17076.84 2271.5716,0 0,-17076.84 -2271.5716,0"
         style="fill:none;stroke:#000000;stroke-width:187.5118103px;stroke-linecap:round;stroke-linejoin:round;stroke-opacity:1;stroke-dasharray:none"
         inkscape:connector-curvature="0" />
      <path
         id="path3099"
         d="m 2362.6488,161884.3 0,4891.44 2266.2142,0 0,-4891.44 -2266.2142,0"
         style="fill:none;stroke:#000000;stroke-width:187.5118103px;stroke-linecap:round;stroke-linejoin:round;stroke-opacity:1;stroke-dasharray:none"
         inkscape:connector-curvature="0" />
      <path
         id="path3101"
         d="m 4628.863,196642.93 0,-9748.32 -3589.5118,0 0,9748.32 3589.5118,0"
         style="fill:none;stroke:#000000;stroke-width:187.5118103px;stroke-linecap:round;stroke-linejoin:round;stroke-opacity:1;stroke-dasharray:none"
         inkscape:connector-curvature="0" />
      <path
         id="path3103"
         d="m 2362.6488,174691.93 0,4874.16 2266.2142,0 0,-4874.16 -2266.2142,0"
         style="fill:none;stroke:#000000;stroke-width:187.5118103px;stroke-linecap:round;stroke-linejoin:round;stroke-opacity:1;stroke-dasharray:none"
         inkscape:connector-curvature="0" />
      <path
         id="path3105"
         d="m 4628.863,208845.61 -3589.5118,0 0,9748.31 3589.5118,0 0,-9748.31"
         style="fill:none;stroke:#000000;stroke-width:187.5118103px;stroke-linecap:round;stroke-linejoin:round;stroke-opacity:1;stroke-dasharray:none"
         inkscape:connector-curvature="0" />
      <path
         id="path3107"
         d="m 6139.6724,210055.5 2271.5717,0 0,-4874.15 -2271.5717,0 0,4874.15"
         style="fill:none;stroke:#000000;stroke-width:187.5118103px;stroke-linecap:round;stroke-linejoin:round;stroke-opacity:1;stroke-dasharray:none"
         inkscape:connector-curvature="0" />
      <path
         id="path3109"
         d="m 6139.6724,222863.13 2271.5717,0 0,-4874.15 -2271.5717,0 0,4874.15"
         style="fill:none;stroke:#000000;stroke-width:187.5118103px;stroke-linecap:round;stroke-linejoin:round;stroke-opacity:1;stroke-dasharray:none"
         inkscape:connector-curvature="0" />
      <path
         id="path3111"
         d="m 13511.565,205181.35 0,4874.15 2271.572,0 0,-4874.15 -2271.572,0"
         style="fill:none;stroke:#000000;stroke-width:187.5118103px;stroke-linecap:round;stroke-linejoin:round;stroke-opacity:1;stroke-dasharray:none"
         inkscape:connector-curvature="0" />
      <path
         id="path3113"
         d="m 13511.565,217988.98 0,4874.15 2271.572,0 0,-4874.15 -2271.572,0"
         style="fill:none;stroke:#000000;stroke-width:187.5118103px;stroke-linecap:round;stroke-linejoin:round;stroke-opacity:1;stroke-dasharray:none"
         inkscape:connector-curvature="0" />
      <path
         id="path3115"
         d="m 9922.0535,217988.98 0,4874.15 2266.2145,0 0,-4874.15 -2266.2145,0"
         style="fill:none;stroke:#000000;stroke-width:187.5118103px;stroke-linecap:round;stroke-linejoin:round;stroke-opacity:1;stroke-dasharray:none"
         inkscape:connector-curvature="0" />
      <path
         id="path3117"
         d="m 12188.268,210055.5 0,-4874.15 -2266.2145,0 0,4874.15 2266.2145,0"
         style="fill:none;stroke:#000000;stroke-width:187.5118103px;stroke-linecap:round;stroke-linejoin:round;stroke-opacity:1;stroke-dasharray:none"
         inkscape:connector-curvature="0" />
      <path
         id="path3119"
         d="m 20315.565,205181.35 0,4874.15 2271.572,0 0,-4874.15 -2271.572,0"
         style="fill:none;stroke:#000000;stroke-width:187.5118103px;stroke-linecap:round;stroke-linejoin:round;stroke-opacity:1;stroke-dasharray:none"
         inkscape:connector-curvature="0" />
      <path
         id="path3121"
         d="m 20315.565,217988.98 0,4874.15 2271.572,0 0,-4874.15 -2271.572,0"
         style="fill:none;stroke:#000000;stroke-width:187.5118103px;stroke-linecap:round;stroke-linejoin:round;stroke-opacity:1;stroke-dasharray:none"
         inkscape:connector-curvature="0" />
      <path
         id="path3123"
         d="m 19372.649,205181.35 -2266.214,0 0,4874.15 2266.214,0 0,-4874.15"
         style="fill:none;stroke:#000000;stroke-width:187.5118103px;stroke-linecap:round;stroke-linejoin:round;stroke-opacity:1;stroke-dasharray:none"
         inkscape:connector-curvature="0" />
      <path
         id="path3125"
         d="m 17106.435,217988.98 0,4874.15 2266.214,0 0,-4874.15 -2266.214,0"
         style="fill:none;stroke:#000000;stroke-width:187.5118103px;stroke-linecap:round;stroke-linejoin:round;stroke-opacity:1;stroke-dasharray:none"
         inkscape:connector-curvature="0" />
      <path
         id="path3127"
         d="m 27312.435,196642.93 0,-9748.32 -3594.87,0 0,9748.32 3594.87,0"
         style="fill:none;stroke:#000000;stroke-width:187.5118103px;stroke-linecap:round;stroke-linejoin:round;stroke-opacity:1;stroke-dasharray:none"
         inkscape:connector-curvature="0" />
      <path
         id="path3129"
         d="m 27312.435,208845.61 -3594.87,0 0,9748.31 3594.87,0 0,-9748.31"
         style="fill:none;stroke:#000000;stroke-width:187.5118103px;stroke-linecap:round;stroke-linejoin:round;stroke-opacity:1;stroke-dasharray:none"
         inkscape:connector-curvature="0" />
      <path
         id="path3131"
         d="m 25362.312,266989.83 0,-8538.42 -1055.424,0 0,8538.42"
         style="fill:none;stroke:#000000;stroke-width:187.5118103px;stroke-linecap:round;stroke-linejoin:round;stroke-opacity:1;stroke-dasharray:none"
         inkscape:connector-curvature="0" />
      <path
         id="path3133"
         d="m 25362.312,266989.83 1580.456,0 0,-13637.28 -4227.052,0 0,13637.28 1591.172,0"
         style="fill:none;stroke:#000000;stroke-width:187.5118103px;stroke-linecap:round;stroke-linejoin:round;stroke-opacity:1;stroke-dasharray:none"
         inkscape:connector-curvature="0" />
      <path
         id="path3135"
         d="m 24306.888,266989.83 0,27793.07 1055.424,0 0,-27793.07"
         style="fill:none;stroke:#000000;stroke-width:187.5118103px;stroke-linecap:round;stroke-linejoin:round;stroke-opacity:1;stroke-dasharray:none"
         inkscape:connector-curvature="0" />
      <path
         id="path3137"
         d="m 20031.619,266989.83 0,-8538.42 -1055.424,0 0,8538.42"
         style="fill:none;stroke:#000000;stroke-width:187.5118103px;stroke-linecap:round;stroke-linejoin:round;stroke-opacity:1;stroke-dasharray:none"
         inkscape:connector-curvature="0" />
      <path
         id="path3139"
         d="m 20031.619,266989.83 1580.457,0 0,-13637.28 -4227.052,0 0,13637.28 1591.171,0"
         style="fill:none;stroke:#000000;stroke-width:187.5118103px;stroke-linecap:round;stroke-linejoin:round;stroke-opacity:1;stroke-dasharray:none"
         inkscape:connector-curvature="0" />
      <path
         id="path3141"
         d="m 14711.641,266989.83 0,-8538.42 -1055.424,0 0,8538.42"
         style="fill:none;stroke:#000000;stroke-width:187.5118103px;stroke-linecap:round;stroke-linejoin:round;stroke-opacity:1;stroke-dasharray:none"
         inkscape:connector-curvature="0" />
      <path
         id="path3143"
         d="m 14711.641,266989.83 1591.172,0 0,-13637.28 -4237.767,0 0,13637.28 1591.171,0"
         style="fill:none;stroke:#000000;stroke-width:187.5118103px;stroke-linecap:round;stroke-linejoin:round;stroke-opacity:1;stroke-dasharray:none"
         inkscape:connector-curvature="0" />
      <path
         id="path3145"
         d="m 9380.948,266989.83 1591.172,0 0,-13637.28 -4227.0523,0 0,13637.28 1580.4567,0"
         style="fill:none;stroke:#000000;stroke-width:187.5118103px;stroke-linecap:round;stroke-linejoin:round;stroke-opacity:1;stroke-dasharray:none"
         inkscape:connector-curvature="0" />
      <path
         id="path3147"
         d="m 9380.948,266989.83 0,-8538.42 -1055.4236,0 0,8538.42"
         style="fill:none;stroke:#000000;stroke-width:187.5118103px;stroke-linecap:round;stroke-linejoin:round;stroke-opacity:1;stroke-dasharray:none"
         inkscape:connector-curvature="0" />
      <path
         id="path3149"
         d="m 4060.9701,266989.83 0,-8538.42 -1055.4237,0 0,8538.42"
         style="fill:none;stroke:#000000;stroke-width:187.5118103px;stroke-linecap:round;stroke-linejoin:round;stroke-opacity:1;stroke-dasharray:none"
         inkscape:connector-curvature="0" />
      <path
         id="path3151"
         d="m 4060.9701,266989.83 1580.4566,0 0,-13637.28 -4227.0519,0 0,13637.28 1591.1716,0"
         style="fill:none;stroke:#000000;stroke-width:187.5118103px;stroke-linecap:round;stroke-linejoin:round;stroke-opacity:1;stroke-dasharray:none"
         inkscape:connector-curvature="0" />
      <path
         id="path3153"
         d="m 3005.5464,266989.83 0,27793.07 1055.4237,0 0,-27793.07"
         style="fill:none;stroke:#000000;stroke-width:187.5118103px;stroke-linecap:round;stroke-linejoin:round;stroke-opacity:1;stroke-dasharray:none"
         inkscape:connector-curvature="0" />
      <path
         id="path3155"
         d="m 18976.195,266989.83 0,27793.07 1055.424,0 0,-27793.07"
         style="fill:none;stroke:#000000;stroke-width:187.5118103px;stroke-linecap:round;stroke-linejoin:round;stroke-opacity:1;stroke-dasharray:none"
         inkscape:connector-curvature="0" />
      <path
         id="path3157"
         d="m 13656.217,266989.83 0,27793.07 1055.424,0 0,-27793.07"
         style="fill:none;stroke:#000000;stroke-width:187.5118103px;stroke-linecap:round;stroke-linejoin:round;stroke-opacity:1;stroke-dasharray:none"
         inkscape:connector-curvature="0" />
      <path
         id="path3159"
         d="m 8325.5244,266989.83 0,27793.07 1055.4236,0 0,-27793.07"
         style="fill:none;stroke:#000000;stroke-width:187.5118103px;stroke-linecap:round;stroke-linejoin:round;stroke-opacity:1;stroke-dasharray:none"
         inkscape:connector-curvature="0" />
      <path
         id="path3161"
         d="m 25989.137,128352.85 0,-128041.73348 -23626.4882,0 0,128041.73348 23626.4882,0 z M 10864.97,33842.564 l 0,13412.579 -5668.2141,0 0,-13412.579 5668.2141,0 z m 7184.381,604.949 5105.679,0 0,13412.579 -5105.679,0 0,-13412.579 z"
         style="fill:#91887f;fill-opacity:1;fill-rule:evenodd;stroke:none"
         inkscape:connector-curvature="0" />
      <path
         id="path3163"
         d="m 10864.97,47255.143 0,-13412.579 -5668.2141,0 0,13412.579 5668.2141,0 z"
         style="fill:#91887f;fill-opacity:1;fill-rule:evenodd;stroke:none"
         inkscape:connector-curvature="0" />
      <path
         id="path3165"
         d="m 23155.03,34447.513 -5105.679,0 0,13412.579 5105.679,0 0,-13412.579 z"
         style="fill:#91887f;fill-opacity:1;fill-rule:evenodd;stroke:none"
         inkscape:connector-curvature="0" />
      <path
         id="path3167"
         d="m 18049.351,34447.513 0,13412.579 5105.679,0 0,-13412.579 -5105.679,0"
         style="fill:none;stroke:#000000;stroke-width:187.5118103px;stroke-linecap:round;stroke-linejoin:round;stroke-opacity:1;stroke-dasharray:none"
         inkscape:connector-curvature="0" />
      <path
         id="path3169"
         d="m 25989.137,311.11652 -23626.4882,0 0,128041.73348 23626.4882,0 0,-128041.73348"
         style="fill:none;stroke:#000000;stroke-width:187.5118103px;stroke-linecap:round;stroke-linejoin:round;stroke-opacity:1;stroke-dasharray:none"
         inkscape:connector-curvature="0" />
      <path
         id="path3171"
         d="m 10864.97,33842.564 -5668.2141,0 0,13412.579 5668.2141,0 0,-13412.579"
         style="fill:none;stroke:#000000;stroke-width:187.5118103px;stroke-linecap:round;stroke-linejoin:round;stroke-opacity:1;stroke-dasharray:none"
         inkscape:connector-curvature="0" />
    </g>
  </g>
</svg>
